<!DOCTYPE svg PUBLIC "-//W3C//DTD SVG 1.1//EN" "http://www.w3.org/Graphics/SVG/1.1/DTD/svg11.dtd">
<!-- Uploaded to: SVG Repo, www.svgrepo.com, Transformed by: SVG Repo Mixer Tools -->
<svg fill="#f3f3f3" version="1.1" id="Layer_1" xmlns="http://www.w3.org/2000/svg" xmlns:xlink="http://www.w3.org/1999/xlink" width="90px" height="90px" viewBox="0 0 512 512" enable-background="new 0 0 512 512" xml:space="preserve" style="--darkreader-inline-fill: #c9beac; --darkreader-inline-stroke: #c9beac;" stroke="#f3f3f3" data-darkreader-inline-fill="" data-darkreader-inline-stroke="">

<g id="SVGRepo_bgCarrier" stroke-width="0"/>

<g id="SVGRepo_tracerCarrier" stroke-linecap="round" stroke-linejoin="round"/>

<g id="SVGRepo_iconCarrier"> <path d="M256,0C114.609,0,0,114.609,0,256s114.609,256,256,256s256-114.609,256-256S397.391,0,256,0z M256,472 c-119.297,0-216-96.703-216-216S136.703,40,256,40s216,96.703,216,216S375.297,472,256,472z"/> <g> <path d="M128,230.391v51.203c56.547,0,102.406,45.844,102.406,102.406h51.188C281.594,299.188,212.844,230.391,128,230.391z"/> <path d="M128,128v51.203c113.094,0,204.812,91.703,204.812,204.797H384C384,242.609,269.406,128,128,128z"/> <path d="M153.594,332.797c-14.141,0-25.594,11.453-25.594,25.609C128,372.547,139.453,384,153.594,384 c14.156,0,25.609-11.453,25.609-25.594C179.203,344.25,167.75,332.797,153.594,332.797z"/> </g> </g>

</svg>